<svg xmlns="http://www.w3.org/2000/svg" version="1.1" xmlns:xlink="http://www.w3.org/1999/xlink" xmlns:svgjs="http://svgjs.dev/svgjs" width="2000" height="671" viewBox="0 0 2000 671"><g transform="matrix(1,0,0,1,-1.2121202297422542,0.2612846730847309)"><svg viewBox="0 0 396 133" data-background-color="#ffffff" preserveAspectRatio="xMidYMid meet" height="671" width="2000" xmlns="http://www.w3.org/2000/svg" xmlns:xlink="http://www.w3.org/1999/xlink"><defs></defs><g id="tight-bounds" transform="matrix(1,0,0,1,0.24000019451102617,-0.05178965949369285)"><svg viewBox="0 0 395.52 133.1035793189874" height="133.1035793189874" width="395.52"><g><svg viewBox="0 0 637.3570059619443 214.48851839999998" height="133.1035793189874" width="395.52"><g transform="matrix(1,0,0,1,0,49.32120145176568)"><svg viewBox="0 0 395.52 115.84611549646861" height="115.84611549646861" width="395.52"><g><svg viewBox="0 0 395.52 115.84611549646861" height="115.84611549646861" width="395.52"><g><svg viewBox="0 0 395.52 115.84611549646861" height="115.84611549646861" width="395.52"><g transform="matrix(1,0,0,1,0,0)"><svg width="395.52" viewBox="5.800000190734863 -35 120.33999633789062 35.25" height="115.84611549646861" data-palette-color="#6b7280"><path d="M19.8 0.25Q13.15 0.25 9.47-3.6 5.8-7.45 5.8-14.85L5.8-14.85 5.8-35 8.35-35 8.35-14.95Q8.35-8.5 11.3-5.3 14.25-2.1 19.85-2.1L19.85-2.1Q25.4-2.1 28.35-5.3 31.3-8.5 31.3-14.95L31.3-14.95 31.3-35 33.85-35 33.85-14.85Q33.85-7.45 30.15-3.6 26.45 0.25 19.8 0.25L19.8 0.25ZM71.7-35L74.25-35 74.25 0 72.15 0 48.3-30.4 48.3 0 45.75 0 45.75-35 47.9-35 71.7-4.6 71.7-35ZM86.45 0L86.45-35 89-35 89 0 86.45 0ZM126.14 0L123.14 0 111.09-16.2 99.09 0 96.09 0 109.54-18.05 97.04-35 100.04-35 111.19-19.95 122.34-35 125.19-35 112.69-18.1 126.14 0Z" opacity="1" transform="matrix(1,0,0,1,0,0)" fill="#000000" class="undefined-text-0" data-fill-palette-color="primary" id="text-0"></path></svg></g></svg></g></svg></g></svg></g><g transform="matrix(1,0,0,1,422.86848756194433,0)"><svg viewBox="0 0 214.48851839999998 214.48851839999998" height="214.48851839999998" width="214.48851839999998"><g><svg></svg></g><g id="icon-0"><svg viewBox="0 0 214.48851839999998 214.48851839999998" height="214.48851839999998" width="214.48851839999998"><g><rect width="195.02567136" height="195.02567136" x="9.731423519999993" y="9.731423519999993" fill="#000000" data-fill-palette-color="accent"></rect><rect width="195.02567136" height="195.02567136" x="-5.329070518200751e-15" y="-5.329070518200751e-15" fill="#000000" opacity="0.5" data-fill-palette-color="accent"></rect></g><g transform="matrix(1,0,0,1,27.80406719999999,43.35311984221855)"><svg viewBox="0 0 158.880384 127.78227871556288" height="127.78227871556288" width="158.880384"><g><svg xmlns="http://www.w3.org/2000/svg" xmlns:xlink="http://www.w3.org/1999/xlink" version="1.1" x="0" y="0" viewBox="0 9.78600025177002 100.0003433227539 80.42699432373047" enable-background="new 0 0 100 100" xml:space="preserve" width="158.880384" height="127.78227871556288" class="icon-x-0" data-fill-palette-color="background" id="x-0"><path d="M49.942 52.994c13.552-0.488 27.103-0.977 40.653-1.465-2.527-4.177-3.159-7.831-7.989-8.461-7.229-0.94-14.458-1.883-21.688-2.826-14.023-1.827-28.05-3.654-42.075-5.48C20.101 36.792 39.724 53.361 49.942 52.994z" fill="#ffffff" data-fill-palette-color="background"></path><path d="M0 9.786c4.391 7.257 26.615 23.072 32.953 23.886 17.33 2.231 34.657 4.46 51.986 6.688-3.393-5.607-4.18-9.35-10.312-10.959-8.904-2.341-17.812-4.683-26.717-7.023C31.94 18.182 15.97 13.984 0 9.786z" fill="#ffffff" data-fill-palette-color="background"></path><path d="M63.108 66.207c10.413-2.219 20.826-4.439 31.241-6.66-2.028-3.346-2.034-5.359-5.827-5.189-6.158 0.273-12.314 0.549-18.471 0.822-11.343 0.506-22.686 1.014-34.028 1.518C37.298 58.064 54.94 67.947 63.108 66.207z" fill="#ffffff" data-fill-palette-color="background"></path><path d="M87.682 90.213c5.725-3.719 7.262-7.721 10.519-13.807 3.651-6.824 1.257-7.844-2.821-14.596-0.417-0.688-5.842 0.232-6.453 0.904-0.745 0.818-0.248 5.455-0.294 6.496C88.315 76.211 87.998 83.213 87.682 90.213z" fill="#ffffff" data-fill-palette-color="background"></path><path d="M86.35 63.447c-3.795 0.809-8.604 0.191-9.572 4.229-1.373 5.736-2.746 11.475-4.12 17.211C81.904 82.678 86.028 71.582 86.35 63.447z" fill="#ffffff" data-fill-palette-color="background"></path><path d="M74.666 66.121c-9.148 1.953-8.956 4.611-12.879 13.18C68.007 78.711 73.811 71.941 74.666 66.121z" fill="#ffffff" data-fill-palette-color="background"></path></svg></g></svg></g></svg></g></svg></g></svg></g></svg><rect width="395.52" height="133.1035793189874" fill="none" stroke="none" visibility="hidden"></rect></g></svg></g></svg>